# xmcd
#
# Track frame offsets:
#	150
#	20505
#	40265
#	60378
#
# Disc length: 1113 seconds
#
# Revision: 0
# Processed by: cddbd v1.5.2PL0 Copyright (c) Steve Scherf et al.
# Submitted via: dBpowerAMP V4.0
#
DISCID=29045704
DTITLE=Blues Inc.  - Blues Inc. 
DYEAR=2004
DGENRE=
TTITLE0=Confessin' The Blues
TTITLE1=Days Of Old
TTITLE2=Got My Mojo Workin'
TTITLE3=Hold On I'm Coming
EXTD=Blues Inc. 
EXTT0=
EXTT1=
EXTT2=
EXTT3=
PLAYORDER=
